TITLE ""
FILE "P1Q_t_0329-0338.mp3" MP3
  TRACK 01 AUDIO
    TITLE "P1Q_t_0329-0338_01"
    INDEX 01 00:00:00
  TRACK 02 AUDIO
    TITLE "P1Q_t_0329-0338_02"
    INDEX 01 00:01:37
  TRACK 03 AUDIO
    TITLE "P1Q_t_0329-0338_03"
    INDEX 01 00:01:63
  TRACK 04 AUDIO
    TITLE "P1Q_t_0329-0338_04"
    INDEX 01 00:04:26
  TRACK 05 AUDIO
    TITLE "P1Q_t_0329-0338_05"
    INDEX 01 00:04:45
  TRACK 06 AUDIO
    TITLE "P1Q_t_0329-0338_06"
    INDEX 01 00:09:01
  TRACK 07 AUDIO
    TITLE "P1Q_t_0329-0338_07"
    INDEX 01 00:09:48
  TRACK 08 AUDIO
    TITLE "P1Q_t_0329-0338_08"
    INDEX 01 00:10:69
  TRACK 09 AUDIO
    TITLE "P1Q_t_0329-0338_09"
    INDEX 01 00:11:16
  TRACK 10 AUDIO
    TITLE "P1Q_t_0329-0338_10"
    INDEX 01 00:13:42
  TRACK 11 AUDIO
    TITLE "P1Q_t_0329-0338_11"
    INDEX 01 00:13:62
  TRACK 12 AUDIO
    TITLE "P1Q_t_0329-0338_12"
    INDEX 01 00:18:40
  TRACK 13 AUDIO
    TITLE "P1Q_t_0329-0338_13"
    INDEX 01 00:19:10
  TRACK 14 AUDIO
    TITLE "P1Q_t_0329-0338_14"
    INDEX 01 00:20:15
  TRACK 15 AUDIO
    TITLE "P1Q_t_0329-0338_15"
    INDEX 01 00:20:37
  TRACK 16 AUDIO
    TITLE "P1Q_t_0329-0338_16"
    INDEX 01 00:21:50
  TRACK 17 AUDIO
    TITLE "P1Q_t_0329-0338_17"
    INDEX 01 00:21:69
  TRACK 18 AUDIO
    TITLE "P1Q_t_0329-0338_18"
    INDEX 01 00:26:41
  TRACK 19 AUDIO
    TITLE "P1Q_t_0329-0338_19"
    INDEX 01 00:27:13
  TRACK 20 AUDIO
    TITLE "P1Q_t_0329-0338_20"
    INDEX 01 00:28:38
  TRACK 21 AUDIO
    TITLE "P1Q_t_0329-0338_21"
    INDEX 01 00:28:60
  TRACK 22 AUDIO
    TITLE "P1Q_t_0329-0338_22"
    INDEX 01 00:30:15
  TRACK 23 AUDIO
    TITLE "P1Q_t_0329-0338_23"
    INDEX 01 00:30:35
  TRACK 24 AUDIO
    TITLE "P1Q_t_0329-0338_24"
    INDEX 01 00:36:02
  TRACK 25 AUDIO
    TITLE "P1Q_t_0329-0338_25"
    INDEX 01 00:36:47
  TRACK 26 AUDIO
    TITLE "P1Q_t_0329-0338_26"
    INDEX 01 00:37:58
  TRACK 27 AUDIO
    TITLE "P1Q_t_0329-0338_27"
    INDEX 01 00:38:07
  TRACK 28 AUDIO
    TITLE "P1Q_t_0329-0338_28"
    INDEX 01 00:40:25
  TRACK 29 AUDIO
    TITLE "P1Q_t_0329-0338_29"
    INDEX 01 00:40:45
  TRACK 30 AUDIO
    TITLE "P1Q_t_0329-0338_30"
    INDEX 01 00:44:53
  TRACK 31 AUDIO
    TITLE "P1Q_t_0329-0338_31"
    INDEX 01 00:45:23
  TRACK 32 AUDIO
    TITLE "P1Q_t_0329-0338_32"
    INDEX 01 00:46:46
  TRACK 33 AUDIO
    TITLE "P1Q_t_0329-0338_33"
    INDEX 01 00:46:65
  TRACK 34 AUDIO
    TITLE "P1Q_t_0329-0338_34"
    INDEX 01 00:50:42
  TRACK 35 AUDIO
    TITLE "P1Q_t_0329-0338_35"
    INDEX 01 00:50:67
  TRACK 36 AUDIO
    TITLE "P1Q_t_0329-0338_36"
    INDEX 01 00:54:63
  TRACK 37 AUDIO
    TITLE "P1Q_t_0329-0338_37"
    INDEX 01 00:55:33
  TRACK 38 AUDIO
    TITLE "P1Q_t_0329-0338_38"
    INDEX 01 00:56:36
  TRACK 39 AUDIO
    TITLE "P1Q_t_0329-0338_39"
    INDEX 01 00:56:64
  TRACK 40 AUDIO
    TITLE "P1Q_t_0329-0338_40"
    INDEX 01 00:58:74
  TRACK 41 AUDIO
    TITLE "P1Q_t_0329-0338_41"
    INDEX 01 00:59:19
  TRACK 42 AUDIO
    TITLE "P1Q_t_0329-0338_42"
    INDEX 01 01:02:49
  TRACK 43 AUDIO
    TITLE "P1Q_t_0329-0338_43"
    INDEX 01 01:03:21
  TRACK 44 AUDIO
    TITLE "P1Q_t_0329-0338_44"
    INDEX 01 01:04:57
  TRACK 45 AUDIO
    TITLE "P1Q_t_0329-0338_45"
    INDEX 01 01:05:02
  TRACK 46 AUDIO
    TITLE "P1Q_t_0329-0338_46"
    INDEX 01 01:07:71
  TRACK 47 AUDIO
    TITLE "P1Q_t_0329-0338_47"
    INDEX 01 01:08:16
  TRACK 48 AUDIO
    TITLE "P1Q_t_0329-0338_48"
    INDEX 01 01:13:52
  TRACK 49 AUDIO
    TITLE "P1Q_t_0329-0338_49"
    INDEX 01 01:14:24
  TRACK 50 AUDIO
    TITLE "P1Q_t_0329-0338_50"
    INDEX 01 01:15:30
  TRACK 51 AUDIO
    TITLE "P1Q_t_0329-0338_51"
    INDEX 01 01:15:53
  TRACK 52 AUDIO
    TITLE "P1Q_t_0329-0338_52"
    INDEX 01 01:23:39
  TRACK 53 AUDIO
    TITLE "P1Q_t_0329-0338_53"
    INDEX 01 01:23:59
  TRACK 54 AUDIO
    TITLE "P1Q_t_0329-0338_54"
    INDEX 01 01:28:40
  TRACK 55 AUDIO
    TITLE "P1Q_t_0329-0338_55"
    INDEX 01 01:29:12
  TRACK 56 AUDIO
    TITLE "P1Q_t_0329-0338_56"
    INDEX 01 01:30:00
  TRACK 57 AUDIO
    TITLE "P1Q_t_0329-0338_57"
    INDEX 01 01:30:25
  TRACK 58 AUDIO
    TITLE "P1Q_t_0329-0338_58"
    INDEX 01 01:32:42
  TRACK 59 AUDIO
    TITLE "P1Q_t_0329-0338_59"
    INDEX 01 01:32:65
  TRACK 60 AUDIO
    TITLE "P1Q_t_0329-0338_60"
    INDEX 01 01:36:69
